<svg width="14" height="15" viewBox="0 0 14 15" fill="none" xmlns="http://www.w3.org/2000/svg">
<path d="M4.99028 5.66866C4.884 5.55938 4.73866 5.4968 4.58623 5.49468C4.43381 5.49257 4.28679 5.55109 4.17751 5.65737C4.06823 5.76365 4.00565 5.90899 4.00354 6.06142C4.00142 6.21384 4.05994 6.36086 4.16622 6.47014L5.48697 7.76267L4.16622 9.0552C4.11332 9.10767 4.07133 9.17009 4.04268 9.23887C4.01402 9.30765 3.99927 9.38143 3.99927 9.45594C3.99927 9.53045 4.01402 9.60422 4.04268 9.673C4.07133 9.74178 4.11332 9.80421 4.16622 9.85668C4.21869 9.90958 4.28112 9.95157 4.3499 9.98023C4.41868 10.0089 4.49245 10.0236 4.56696 10.0236C4.64147 10.0236 4.71525 10.0089 4.78403 9.98023C4.85281 9.95157 4.91523 9.90958 4.9677 9.85668L6.66097 8.16341C6.71388 8.11094 6.75587 8.04851 6.78452 7.97973C6.81318 7.91095 6.82793 7.83718 6.82793 7.76267C6.82793 7.68816 6.81318 7.61438 6.78452 7.5456C6.75587 7.47682 6.71388 7.4144 6.66097 7.36193L4.99028 5.66866ZM9.78788 7.36193L8.09461 5.66866C7.98833 5.56238 7.84417 5.50267 7.69387 5.50267C7.54356 5.50267 7.39941 5.56238 7.29313 5.66866C7.18684 5.77494 7.12714 5.91909 7.12714 6.0694C7.12714 6.21971 7.18684 6.36386 7.29313 6.47014L8.5913 7.76267L7.29313 9.0552C7.24022 9.10767 7.19823 9.17009 7.16958 9.23887C7.14092 9.30765 7.12617 9.38143 7.12617 9.45594C7.12617 9.53045 7.14092 9.60422 7.16958 9.673C7.19823 9.74178 7.24022 9.80421 7.29313 9.85668C7.3456 9.90958 7.40802 9.95157 7.4768 9.98023C7.54558 10.0089 7.61936 10.0236 7.69387 10.0236C7.76838 10.0236 7.84215 10.0089 7.91093 9.98023C7.97971 9.95157 8.04214 9.90958 8.09461 9.85668L9.78788 8.16341C9.84228 8.11244 9.88606 8.05121 9.91667 7.98323C9.94728 7.91526 9.96412 7.84189 9.96622 7.76737C9.96831 7.69286 9.95563 7.61866 9.9289 7.54907C9.90216 7.47948 9.86191 7.41587 9.81045 7.36193H9.78788Z" fill="black"/>
</svg>
