<svg width="20" height="20" viewBox="0 0 20 20" fill="none" xmlns="http://www.w3.org/2000/svg">
<path d="M17 4.5H11V2H15.62C15.8852 2 16.1396 1.89464 16.3271 1.70711C16.5146 1.51957 16.62 1.26522 16.62 1C16.62 0.734784 16.5146 0.48043 16.3271 0.292893C16.1396 0.105357 15.8852 0 15.62 0H4.38C4.11478 0 3.86043 0.105357 3.67289 0.292893C3.48536 0.48043 3.38 0.734784 3.38 1C3.38 1.26522 3.48536 1.51957 3.67289 1.70711C3.86043 1.89464 4.11478 2 4.38 2H9V4.5H3C2.20435 4.5 1.44129 4.81607 0.87868 5.37868C0.316071 5.94129 0 6.70435 0 7.5V17C0 17.7956 0.316071 18.5587 0.87868 19.1213C1.44129 19.6839 2.20435 20 3 20H17C17.7956 20 18.5587 19.6839 19.1213 19.1213C19.6839 18.5587 20 17.7956 20 17V7.5C20 6.70435 19.6839 5.94129 19.1213 5.37868C18.5587 4.81607 17.7956 4.5 17 4.5ZM9 18H3C2.73478 18 2.48043 17.8946 2.29289 17.7071C2.10536 17.5196 2 17.2652 2 17V13.25H9C8.99434 13.2931 8.99434 13.3369 9 13.38V17.88C8.99546 17.9199 8.99546 17.9601 9 18ZM18 17C18 17.2652 17.8946 17.5196 17.7071 17.7071C17.5196 17.8946 17.2652 18 17 18H11C11.0045 17.9601 11.0045 17.9199 11 17.88V13.38C11.0057 13.3369 11.0057 13.2931 11 13.25H18V17ZM18 11.25H2V7.5C2 7.23478 2.10536 6.98043 2.29289 6.79289C2.48043 6.60536 2.73478 6.5 3 6.5H17C17.2652 6.5 17.5196 6.60536 17.7071 6.79289C17.8946 6.98043 18 7.23478 18 7.5V11.25Z" fill="black"/>
</svg>
