<svg width="24" height="24" viewBox="0 0 24 24" fill="none" xmlns="http://www.w3.org/2000/svg">
<path d="M10.0001 17.5501L8.23008 19.2701C7.76595 19.7342 7.13646 19.995 6.48008 19.995C5.8237 19.995 5.19421 19.7342 4.73008 19.2701C4.26595 18.806 4.00521 18.1765 4.00521 17.5201C4.00521 16.8637 4.26595 16.2342 4.73008 15.7701L9.27008 11.2201C9.71569 10.773 10.3161 10.5144 10.9471 10.4976C11.5781 10.4809 12.1914 10.7073 12.6601 11.1301L12.7801 11.2301C12.9697 11.4157 13.2253 11.5185 13.4907 11.5157C13.7561 11.5128 14.0094 11.4047 14.1951 11.2151C14.3807 11.0255 14.4835 10.7699 14.4806 10.5045C14.4778 10.2391 14.3697 9.98575 14.1801 9.80009C14.1236 9.72712 14.0636 9.65703 14.0001 9.59009C13.1464 8.84741 12.0424 8.45694 10.9116 8.49779C9.78088 8.53864 8.70791 9.00775 7.91008 9.81009L3.31008 14.3601C2.52844 15.2109 2.1057 16.3308 2.13016 17.4858C2.15461 18.6409 2.62436 19.7419 3.44131 20.5589C4.25826 21.3758 5.35924 21.8456 6.51433 21.87C7.66941 21.8945 8.78929 21.4717 9.64008 20.6901L11.3701 19.0001C11.5409 18.8137 11.6348 18.5696 11.6329 18.3168C11.631 18.064 11.5334 17.8214 11.3598 17.6376C11.1862 17.4539 10.9494 17.3427 10.6971 17.3264C10.4449 17.3102 10.1958 17.3901 10.0001 17.5501ZM20.6901 3.31009C19.8489 2.4741 18.7111 2.00488 17.5251 2.00488C16.3391 2.00488 15.2013 2.4741 14.3601 3.31009L12.6301 5.00009C12.4593 5.18644 12.3654 5.43057 12.3673 5.68336C12.3692 5.93615 12.4668 6.17883 12.6404 6.36258C12.814 6.54633 13.0507 6.65751 13.303 6.67375C13.5553 6.68998 13.8043 6.61007 14.0001 6.45009L15.7301 4.73009C16.1942 4.26597 16.8237 4.00522 17.4801 4.00522C18.1365 4.00522 18.766 4.26597 19.2301 4.73009C19.6942 5.19422 19.955 5.82372 19.955 6.48009C19.955 7.13647 19.6942 7.76596 19.2301 8.23009L14.6901 12.7801C14.2445 13.2272 13.6441 13.4858 13.0131 13.5026C12.3821 13.5193 11.7688 13.2929 11.3001 12.8701L11.1801 12.7701C10.9905 12.5844 10.7348 12.4817 10.4695 12.4845C10.2041 12.4874 9.95073 12.5955 9.76508 12.7851C9.57943 12.9747 9.47671 13.2303 9.47952 13.4957C9.48234 13.7611 9.59045 14.0144 9.78008 14.2001C9.85272 14.2744 9.92951 14.3445 10.0101 14.4101C10.8648 15.1505 11.9683 15.5395 13.0984 15.4987C14.2285 15.4579 15.3011 14.9903 16.1001 14.1901L20.6501 9.64009C21.4914 8.80417 21.9678 7.66932 21.9753 6.48334C21.9828 5.29736 21.5208 4.15659 20.6901 3.31009Z" fill="black"/>
</svg>
