<svg width="24" height="24" viewBox="0 0 24 24" fill="none" xmlns="http://www.w3.org/2000/svg">
<path d="M22.0001 5.08032C22.0009 4.47054 21.8207 3.87423 21.4823 3.36695C21.144 2.85967 20.6626 2.46425 20.0993 2.23078C19.536 1.99732 18.916 1.93632 18.318 2.05551C17.72 2.1747 17.1708 2.46872 16.7401 2.90032L13.9301 5.71032L7.44006 3.55032C7.26727 3.49601 7.08297 3.48965 6.90685 3.53192C6.73072 3.57419 6.56938 3.66351 6.44006 3.79032L4.06006 6.15032C3.94729 6.2644 3.86362 6.40393 3.81611 6.55714C3.76859 6.71035 3.75863 6.87274 3.78707 7.03061C3.81551 7.18848 3.8815 7.33719 3.97949 7.46419C4.07747 7.5912 4.20457 7.69276 4.35006 7.76032L9.53006 10.1103L6.93006 12.7103L5.22006 11.8503C5.03543 11.7504 4.82404 11.7111 4.61584 11.738C4.40764 11.765 4.2132 11.8567 4.06006 12.0003L2.29006 13.8103C2.10381 13.9977 1.99927 14.2511 1.99927 14.5153C1.99927 14.7795 2.10381 15.033 2.29006 15.2203L8.78006 21.7103C8.96742 21.8966 9.22087 22.0011 9.48506 22.0011C9.74925 22.0011 10.0027 21.8966 10.1901 21.7103L12.0001 19.9403C12.1501 19.7918 12.2494 19.5996 12.2835 19.3912C12.3176 19.1828 12.2849 18.969 12.1901 18.7803L11.3301 17.0703L13.9301 14.4703L16.2801 19.6503C16.3476 19.7958 16.4492 19.9229 16.5762 20.0209C16.7032 20.1189 16.8519 20.1849 17.0098 20.2133C17.1676 20.2418 17.33 20.2318 17.4832 20.1843C17.6364 20.1368 17.776 20.0531 17.8901 19.9403L20.2501 17.5803C20.3769 17.451 20.4662 17.2897 20.5085 17.1135C20.5507 16.9374 20.5444 16.7531 20.4901 16.5803L18.3301 10.0903L21.1001 7.26032C21.3873 6.97489 21.6148 6.63512 21.7693 6.26083C21.9238 5.88655 22.0023 5.48524 22.0001 5.08032ZM19.6801 5.85032L16.4401 9.09032C16.3132 9.21964 16.2239 9.38098 16.1817 9.55711C16.1394 9.73323 16.1458 9.91753 16.2001 10.0903L18.3601 16.5703L17.4601 17.4703L15.1101 12.3003C15.0434 12.1535 14.9421 12.025 14.815 11.9257C14.6879 11.8265 14.5387 11.7594 14.3801 11.7303C14.2201 11.7011 14.0555 11.7114 13.9004 11.7602C13.7453 11.809 13.6045 11.8948 13.4901 12.0103L9.37006 16.1703C9.22215 16.3181 9.12427 16.5085 9.09019 16.7148C9.0561 16.9211 9.08754 17.1328 9.18006 17.3203L10.0001 19.0003L9.44006 19.5603L4.41006 14.5203L5.00006 14.0003L6.71006 14.8603C6.89755 14.9528 7.10932 14.9843 7.31561 14.9502C7.52189 14.9161 7.7123 14.8182 7.86006 14.6703L12.0001 10.5103C12.115 10.3963 12.2005 10.2561 12.2492 10.1018C12.298 9.94744 12.3086 9.78357 12.2801 9.62424C12.2516 9.46491 12.1848 9.31488 12.0855 9.18705C11.9862 9.05921 11.8574 8.95739 11.7101 8.89032L6.50006 6.54032L7.40006 5.64032L13.8801 7.80032C14.0529 7.85463 14.2372 7.86099 14.4133 7.81872C14.5894 7.77645 14.7507 7.68714 14.8801 7.56032L18.1201 4.32032C18.2197 4.21842 18.3387 4.13746 18.4701 4.08219C18.6014 4.02691 18.7425 3.99844 18.8851 3.99844C19.0276 3.99844 19.1687 4.02691 19.3 4.08219C19.4314 4.13746 19.5504 4.21842 19.6501 4.32032C19.7544 4.41697 19.8369 4.53475 19.892 4.6658C19.9472 4.79686 19.9738 4.93817 19.9701 5.08032C19.9755 5.22152 19.9526 5.36238 19.9028 5.49461C19.853 5.62684 19.7773 5.74778 19.6801 5.85032Z" fill="black"/>
</svg>
