<svg width="24" height="24" viewBox="0 0 24 24" fill="none" xmlns="http://www.w3.org/2000/svg">
<path d="M6.62 13.0798C6.4959 13.1247 6.3832 13.1964 6.28989 13.2897C6.19657 13.383 6.12491 13.4957 6.08 13.6198C6.00726 13.8016 5.98945 14.0006 6.02879 14.1924C6.06812 14.3841 6.16287 14.5601 6.30128 14.6985C6.43969 14.837 6.61569 14.9317 6.80744 14.971C6.99919 15.0104 7.19827 14.9926 7.38 14.9198C7.50118 14.8692 7.6128 14.7982 7.71 14.7098C7.79833 14.6126 7.86936 14.501 7.92 14.3798C7.97598 14.2611 8.00338 14.131 8 13.9998C7.99632 13.7351 7.89273 13.4815 7.71 13.2898C7.56938 13.1511 7.3908 13.0571 7.19681 13.0197C7.00282 12.9823 6.80211 13.0032 6.62 13.0798ZM19.76 9.07983L18.4 5.04983C18.1926 4.46306 17.8077 3.95533 17.2989 3.59699C16.7901 3.23865 16.1824 3.04743 15.56 3.04983H8.44C7.81764 3.04743 7.20995 3.23865 6.7011 3.59699C6.19225 3.95533 5.80745 4.46306 5.6 5.04983L4.24 9.10983C3.60033 9.27734 3.03392 9.65149 2.62883 10.1741C2.22374 10.6968 2.00268 11.3386 2 11.9998V15.9998C2.00174 16.6188 2.19488 17.222 2.55294 17.7269C2.911 18.2318 3.41645 18.6135 4 18.8198V19.9998C4 20.265 4.10536 20.5194 4.29289 20.7069C4.48043 20.8945 4.73478 20.9998 5 20.9998C5.26522 20.9998 5.51957 20.8945 5.70711 20.7069C5.89464 20.5194 6 20.265 6 19.9998V18.9998H18V19.9998C18 20.265 18.1054 20.5194 18.2929 20.7069C18.4804 20.8945 18.7348 20.9998 19 20.9998C19.2652 20.9998 19.5196 20.8945 19.7071 20.7069C19.8946 20.5194 20 20.265 20 19.9998V18.8198C20.5835 18.6135 21.089 18.2318 21.4471 17.7269C21.8051 17.222 21.9983 16.6188 22 15.9998V11.9998C21.9973 11.3386 21.7763 10.6968 21.3712 10.1741C20.9661 9.65149 20.3997 9.27734 19.76 9.10983V9.07983ZM7.49 5.67983C7.55709 5.48121 7.6849 5.30869 7.85537 5.18667C8.02584 5.06465 8.23036 4.99929 8.44 4.99983H15.56C15.7781 4.98845 15.9939 5.04875 16.1744 5.17154C16.355 5.29433 16.4904 5.47285 16.56 5.67983L17.61 8.99983H6.39L7.49 5.67983ZM20 15.9998C20 16.265 19.8946 16.5194 19.7071 16.7069C19.5196 16.8945 19.2652 16.9998 19 16.9998H5C4.73478 16.9998 4.48043 16.8945 4.29289 16.7069C4.10536 16.5194 4 16.265 4 15.9998V11.9998C4 11.7346 4.10536 11.4803 4.29289 11.2927C4.48043 11.1052 4.73478 10.9998 5 10.9998H19C19.2652 10.9998 19.5196 11.1052 19.7071 11.2927C19.8946 11.4803 20 11.7346 20 11.9998V15.9998ZM16.62 13.0798C16.4959 13.1247 16.3832 13.1964 16.2899 13.2897C16.1966 13.383 16.1249 13.4957 16.08 13.6198C16.0073 13.8016 15.9895 14.0006 16.0288 14.1924C16.0681 14.3841 16.1629 14.5601 16.3013 14.6985C16.4397 14.837 16.6157 14.9317 16.8074 14.971C16.9992 15.0104 17.1983 14.9926 17.38 14.9198C17.5041 14.8749 17.6168 14.8033 17.7101 14.7099C17.8034 14.6166 17.8751 14.5039 17.92 14.3798C17.976 14.2611 18.0034 14.131 18 13.9998C17.9963 13.7351 17.8927 13.4815 17.71 13.2898C17.5694 13.1511 17.3908 13.0571 17.1968 13.0197C17.0028 12.9823 16.8021 13.0032 16.62 13.0798ZM13 12.9998H11C10.7348 12.9998 10.4804 13.1052 10.2929 13.2927C10.1054 13.4803 10 13.7346 10 13.9998C10 14.265 10.1054 14.5194 10.2929 14.7069C10.4804 14.8945 10.7348 14.9998 11 14.9998H13C13.2652 14.9998 13.5196 14.8945 13.7071 14.7069C13.8946 14.5194 14 14.265 14 13.9998C14 13.7346 13.8946 13.4803 13.7071 13.2927C13.5196 13.1052 13.2652 12.9998 13 12.9998Z" fill="black"/>
</svg>
